<svg width="24" height="24" viewBox="0 0 24 24" fill="none" xmlns="http://www.w3.org/2000/svg">
<path d="M17.7069 9.04045C18.0975 8.64995 18.0975 8.01677 17.7069 7.62624C17.3164 7.23571 16.6833 7.23569 16.2928 7.62621L10.3332 13.5855L8.36856 11.6209C7.97804 11.2304 7.34487 11.2304 6.95435 11.6209C6.56383 12.0113 6.56383 12.6445 6.95435 13.0351L9.62613 15.7068C10.0165 16.0973 10.6497 16.0973 11.0403 15.7068L17.7069 9.04045ZM4.33333 0C1.94009 0 0 1.94009 0 4.33333V19.6667C0 22.0599 1.94009 24 4.33333 24H19.6667C22.0599 24 24 22.0599 24 19.6667V4.33333C24 1.94009 22.0599 0 19.6667 0H4.33333ZM2 4.33333C2 3.04467 3.04467 2 4.33333 2H19.6667C20.9553 2 22 3.04467 22 4.33333V19.6667C22 20.9553 20.9553 22 19.6667 22H4.33333C3.04467 22 2 20.9553 2 19.6667V4.33333Z" fill="white"/>
<path d="M17.7069 9.04045C18.0975 8.64995 18.0975 8.01677 17.7069 7.62624C17.3164 7.23571 16.6833 7.23569 16.2928 7.62621L10.3332 13.5855L8.36856 11.6209C7.97804 11.2304 7.34487 11.2304 6.95435 11.6209C6.56383 12.0113 6.56383 12.6445 6.95435 13.0351L9.62613 15.7068C10.0165 16.0973 10.6497 16.0973 11.0403 15.7068L17.7069 9.04045ZM4.33333 0C1.94009 0 0 1.94009 0 4.33333V19.6667C0 22.0599 1.94009 24 4.33333 24H19.6667C22.0599 24 24 22.0599 24 19.6667V4.33333C24 1.94009 22.0599 0 19.6667 0H4.33333ZM2 4.33333C2 3.04467 3.04467 2 4.33333 2H19.6667C20.9553 2 22 3.04467 22 4.33333V19.6667C22 20.9553 20.9553 22 19.6667 22H4.33333C3.04467 22 2 20.9553 2 19.6667V4.33333Z" stroke="white"/>
</svg>
