<svg width="16" height="17" viewBox="0 0 16 17" fill="gray" xmlns="http://www.w3.org/2000/svg">
<path d="M11.8046 6.52135C12.065 6.26102 12.065 5.8389 11.8046 5.57855C11.5443 5.31819 11.1222 5.31818 10.8619 5.57853L6.8888 9.55136L5.57904 8.24167C5.31869 7.98132 4.89658 7.98132 4.63623 8.24167C4.37589 8.50194 4.37589 8.92407 4.63623 9.18443L6.41742 10.9656C6.67769 11.2259 7.09982 11.2259 7.36018 10.9656L11.8046 6.52135ZM2.88889 0.494385C1.2934 0.494385 0 1.78778 0 3.38327V13.6055C0 15.201 1.2934 16.4944 2.88889 16.4944H13.1111C14.7066 16.4944 16 15.201 16 13.6055V3.38327C16 1.78778 14.7066 0.494385 13.1111 0.494385H2.88889ZM1.33333 3.38327C1.33333 2.52416 2.02978 1.82772 2.88889 1.82772H13.1111C13.9702 1.82772 14.6667 2.52416 14.6667 3.38327V13.6055C14.6667 14.4646 13.9702 15.1611 13.1111 15.1611H2.88889C2.02978 15.1611 1.33333 14.4646 1.33333 13.6055V3.38327Z" fill="#808080"/>
<path d="M11.8046 6.52135C12.065 6.26102 12.065 5.8389 11.8046 5.57855C11.5443 5.31819 11.1222 5.31818 10.8619 5.57853L6.8888 9.55136L5.57904 8.24167C5.31869 7.98132 4.89658 7.98132 4.63623 8.24167C4.37589 8.50194 4.37589 8.92407 4.63623 9.18443L6.41742 10.9656C6.67769 11.2259 7.09982 11.2259 7.36018 10.9656L11.8046 6.52135ZM2.88889 0.494385C1.2934 0.494385 0 1.78778 0 3.38327V13.6055C0 15.201 1.2934 16.4944 2.88889 16.4944H13.1111C14.7066 16.4944 16 15.201 16 13.6055V3.38327C16 1.78778 14.7066 0.494385 13.1111 0.494385H2.88889ZM1.33333 3.38327C1.33333 2.52416 2.02978 1.82772 2.88889 1.82772H13.1111C13.9702 1.82772 14.6667 2.52416 14.6667 3.38327V13.6055C14.6667 14.4646 13.9702 15.1611 13.1111 15.1611H2.88889C2.02978 15.1611 1.33333 14.4646 1.33333 13.6055V3.38327Z" stroke="#808080"/>
</svg>
