<svg width="53" height="53" viewBox="0 0 53 53" fill="none" xmlns="http://www.w3.org/2000/svg">
<path d="M47.2182 9.18235C47.2182 4.5745 43.483 0.839111 38.8749 0.839111H9.35278C4.74495 0.839111 1.00953 4.5745 1.00953 9.18235V40.7139C1.00953 44.0604 5.04202 45.7512 7.42857 43.4053L17.7721 33.2386C17.79 33.2212 17.8074 33.2034 17.8244 33.1852L22.7666 28.3456L22.9812 28.1639C23.7293 27.6186 24.7803 27.6795 25.4608 28.3456L29.4367 32.2399C30.1909 32.9786 31.3992 32.9723 32.1457 32.2258C32.9033 31.4683 32.8969 30.238 32.1314 29.4884L28.155 25.5944L27.8254 25.2953C25.5707 23.4005 22.2113 23.5001 20.0726 25.5942L8.65216 36.7755C8.64847 36.7791 8.65102 36.7854 8.65619 36.7854C8.66135 36.7854 8.66391 36.7917 8.66023 36.7953L6.74207 38.6807C6.04244 39.3684 4.86026 38.8727 4.86026 37.8917V9.18235C4.86026 6.7012 6.87163 4.68984 9.35278 4.68984H38.8749C41.3561 4.68984 43.3675 6.7012 43.3675 9.18235V19.7153C43.3675 20.7976 44.4816 21.5464 45.5574 21.4276C46.4498 21.3289 47.2182 20.636 47.2182 19.7381V9.18235ZM38.2442 15.6057C38.2442 12.4126 35.6557 9.82414 32.4625 9.82414C29.2694 9.82414 26.681 12.4126 26.681 15.6057C26.681 18.7987 29.2694 21.3871 32.4625 21.3871C35.6557 21.3871 38.2442 18.7987 38.2442 15.6057ZM30.5317 15.6057C30.5317 14.5393 31.3963 13.6749 32.4625 13.6749C33.5289 13.6749 34.3935 14.5393 34.3935 15.6057C34.3935 16.672 33.5289 17.5365 32.4625 17.5365C31.3963 17.5365 30.5317 16.672 30.5317 15.6057ZM27.188 40.8145L42.3403 25.6622C44.6318 23.3705 48.347 23.3705 50.6384 25.6622C52.9298 27.9536 52.9298 31.6688 50.6384 33.9602L35.486 49.1126C34.6027 49.9962 33.4957 50.6229 32.2835 50.9258L27.5838 52.1008C27.3341 52.1634 27.0821 52.2139 26.8335 52.2809C24.8728 52.8098 19.406 53.5277 17.3766 51.9439C15.9019 50.7928 16.1954 48.5183 16.818 47.2755C16.9175 47.0768 16.7669 46.8163 16.5473 46.8507C14.851 47.1156 13.3559 48.0074 11.8584 48.9011C9.84598 50.1017 7.82912 51.3049 5.31354 50.9925C2.80064 50.6801 1.54476 49.1293 0.923457 47.7723C0.66954 47.2178 1.38449 46.7421 1.91985 47.0345C3.12286 47.6909 4.75835 48.3073 6.10708 48.009C7.07007 47.7959 8.42732 46.8358 9.94823 45.7599C12.6829 43.8256 15.9468 41.5167 18.3994 42.5035C20.5532 43.3701 22.1456 45.4585 21.0433 47.9289C20.908 48.2318 21.044 48.6048 21.3675 48.6793C21.7973 48.7778 22.1996 48.825 22.5853 48.819C23.6958 48.8017 24.4319 47.7884 24.7013 46.7109L25.3748 44.0171C25.6777 42.8049 26.3044 41.6979 27.188 40.8145Z" fill="#AA00FF"/>
</svg>
