<svg width="24" height="25" viewBox="0 0 24 25" fill="none" xmlns="http://www.w3.org/2000/svg">
<path id="Vector" d="M12.0137 0.494385C12.9545 0.504797 13.8916 0.609167 14.8099 0.805819C15.2107 0.891666 15.5105 1.21255 15.5561 1.60449L15.7742 3.4837C15.873 4.34653 16.6317 5.00005 17.5362 5.00096C17.7793 5.00133 18.0198 4.95271 18.2445 4.85726L20.0398 4.10001C20.4132 3.9425 20.8495 4.02838 21.1281 4.31423C22.4256 5.64472 23.3918 7.24043 23.9542 8.98127C24.0755 9.35666 23.9359 9.7646 23.6065 9.99779L22.0151 11.1241C21.5611 11.4443 21.2931 11.9529 21.2931 12.4938C21.2931 13.0346 21.5611 13.5432 22.0162 13.8641L23.6088 14.9908C23.9383 15.2239 24.0781 15.6319 23.9568 16.0074C23.3946 17.748 22.4289 19.3435 21.1322 20.6743C20.8538 20.96 20.4179 21.0462 20.0445 20.889L18.2419 20.1307C17.7261 19.914 17.1339 19.9458 16.6465 20.2163C16.1591 20.4867 15.8348 20.9636 15.7729 21.5008L15.5562 23.3799C15.5114 23.7673 15.2182 24.0861 14.8231 24.1763C12.9666 24.6004 11.0322 24.6004 9.17558 24.1763C8.78063 24.0861 8.48728 23.7673 8.44258 23.3799L8.22619 21.5037C8.16262 20.9674 7.83778 20.492 7.3508 20.2224C6.86383 19.9529 6.27253 19.9213 5.75853 20.1368L3.95552 20.8952C3.58207 21.0523 3.14601 20.9662 2.86754 20.6802C1.57016 19.348 0.604421 17.7504 0.0430078 16.008C-0.0779167 15.6328 0.061799 15.225 0.391207 14.992L1.9849 13.8646C2.43884 13.5444 2.70692 13.0358 2.70692 12.495C2.70692 11.9541 2.43884 11.4456 1.9843 11.1249L0.391605 9.99946C0.061722 9.76635 -0.0781218 9.35814 0.0432257 8.9825C0.605613 7.24166 1.57186 5.64595 2.86927 4.31547C3.14801 4.02961 3.58427 3.94374 3.95766 4.10124L5.75266 4.85836C6.26915 5.07601 6.86292 5.04314 7.35253 4.76848C7.84002 4.49697 8.16457 4.01959 8.22723 3.48226L8.44522 1.60449C8.49075 1.21236 8.79082 0.891358 9.19194 0.805696C10.1114 0.609363 11.0495 0.505031 12.0137 0.494385ZM12.0139 2.34042C11.8362 2.34243 11.6585 2.34832 11.4812 2.35809C10.7669 2.39742 10.2205 2.97661 10.138 3.68723V3.68723C10.0075 4.80662 9.33195 5.80027 8.31984 6.36398C7.30151 6.93523 6.05996 7.00398 4.97969 6.54876V6.54876C4.29368 6.25941 3.48659 6.43876 3.07419 7.05863C2.91741 7.29429 2.77078 7.53603 2.63468 7.78324C2.28039 8.42676 2.52338 9.21361 3.12331 9.63753V9.63753C4.07032 10.3056 4.62961 11.3667 4.62961 12.495C4.62961 13.6233 4.07032 14.6843 3.12431 15.3517V15.3517C2.52325 15.7769 2.27957 16.5653 2.63419 17.2105C2.76904 17.4559 2.91424 17.6959 3.06943 17.9299C3.48394 18.5548 4.2968 18.7361 4.98808 18.4453V18.4453C6.06235 17.995 7.29545 18.0608 8.31101 18.6229C9.32655 19.185 10.004 20.1765 10.1369 21.2976V21.2976C10.2196 22.0142 10.7678 22.6016 11.4882 22.636C11.8288 22.6523 12.1701 22.6523 12.5107 22.636C13.2311 22.6016 13.7792 22.0142 13.8619 21.2978V21.2978C13.9911 20.177 14.6678 19.1821 15.6845 18.6179C16.7012 18.0536 17.9369 17.9874 19.0131 18.4397V18.4397C19.7038 18.7302 20.5161 18.5493 20.9305 17.9249C21.0855 17.6914 21.2306 17.452 21.3653 17.2072C21.7198 16.5631 21.4768 15.7757 20.8767 15.3512V15.3512C19.9297 14.6831 19.3704 13.622 19.3704 12.4938C19.3704 11.3654 19.9297 10.3044 20.8755 9.63714V9.63714C21.4749 9.21294 21.7175 8.42644 21.3634 7.78314C21.2267 7.53481 21.0794 7.292 20.9219 7.05533C20.5102 6.43679 19.7047 6.25778 19.0201 6.54655V6.54655C18.5519 6.74549 18.0453 6.84788 17.5337 6.84711C15.6499 6.84522 14.0688 5.48338 13.8632 3.6868V3.6868C13.7807 2.97611 13.2345 2.39636 12.5201 2.35722C12.3507 2.34794 12.1819 2.34233 12.0139 2.34042ZM11.9977 7.87896C14.6524 7.87896 16.8044 9.94534 16.8044 12.4944C16.8044 15.0433 14.6524 17.1098 11.9977 17.1098C9.34298 17.1098 7.19093 15.0433 7.19093 12.4944C7.19093 9.94534 9.34298 7.87896 11.9977 7.87896ZM11.9977 9.72512C10.4049 9.72512 9.11363 10.9649 9.11363 12.4944C9.11363 14.0238 10.4049 15.2637 11.9977 15.2637C13.5904 15.2637 14.8817 14.0238 14.8817 12.4944C14.8817 10.9649 13.5904 9.72512 11.9977 9.72512Z" fill="white"/>
</svg>
