<svg width="14" height="15" viewBox="0 0 14 15" fill="none" xmlns="http://www.w3.org/2000/svg">
<path d="M12.963 0.5H1.03347C0.462972 0.5 0 0.952083 0 1.50878V13.4899C0 14.0473 0.462972 14.5 1.03347 14.5H12.963C13.5339 14.5 14 14.0473 14 13.4899V1.50878C14 0.952083 13.5339 0.5 12.963 0.5ZM4.15217 12.4299H2.07472V5.74903H4.15217V12.4299ZM3.11344 4.83553C2.44786 4.83553 1.90983 4.29614 1.90983 3.63114C1.90983 2.96711 2.44786 2.42772 3.11344 2.42772C3.77747 2.42772 4.31686 2.96711 4.31686 3.63114C4.31686 4.29614 3.77747 4.83553 3.11344 4.83553ZM11.9292 12.4299H9.85503V9.18117C9.85503 8.40611 9.83986 7.40958 8.77567 7.40958C7.69494 7.40958 7.53025 8.25367 7.53025 9.12497V12.4301H5.45456V5.74903H7.44664V6.66136H7.47503C7.75231 6.13636 8.42975 5.58239 9.44008 5.58239C11.5413 5.58239 11.9294 6.96567 11.9294 8.76525L11.9292 12.4299Z" fill="white"/>
</svg>
