<svg width="340" height="345" viewBox="0 0 340 345" fill="none" xmlns="http://www.w3.org/2000/svg">
<path d="M340 179.744V165.256L208.444 164.948L332 119.83L327.041 106.209L203.344 151.019L302.355 67.5861L303.924 66.2562L294.593 55.1692L193.733 139.414L258.32 27.3676L259.343 25.5898L246.79 18.3384L180.704 132.107L203.26 2.50578L188.97 0L165.993 129.293L143.03 0L128.74 2.50578L151.296 132.107L85.21 18.3384L72.6429 25.5898L138.253 139.414L37.3931 55.1552L28.0763 66.2562L128.656 151.019L4.95946 106.209L-0.000161171 119.83L123.556 164.948L-8 165.256V179.744L123.556 180.052L-0.000161171 225.156L4.95946 238.777L128.642 193.981L28.0763 278.73L37.3931 289.831L138.253 205.572L73.6796 317.618L72.6569 319.41L85.21 326.662L151.296 212.88L128.74 342.48L143.016 345L165.993 215.707L188.97 345L203.26 342.48L180.704 212.88L246.79 326.662L259.343 319.41L193.733 205.572L294.593 289.831L303.924 278.73L203.344 193.981L327.041 238.777L332 225.156L208.444 180.052L340 179.744Z" fill="url(#paint0_linear_1_50)" style="mix-blend-mode:luminosity"/>
<defs>
<linearGradient id="paint0_linear_1_50" x1="266.026" y1="39.8685" x2="65.9865" y2="305.555" gradientUnits="userSpaceOnUse">
<stop stop-color="#910DFF"/>
<stop offset="0.94" stop-color="#0000FF"/>
</linearGradient>
</defs>
</svg>
