<svg width="275" height="274" viewBox="0 0 275 274" fill="none" xmlns="http://www.w3.org/2000/svg">
<path d="M275 142.754V131.247L171.041 131.002L268.678 95.169L264.759 84.3513L167.011 119.94L245.251 53.6771L246.491 52.6209L239.118 43.8155L159.416 110.723L210.454 21.7354L211.263 20.3235L201.343 14.5644L149.119 104.919L166.944 1.9901L155.651 0L137.494 102.685L119.349 0L108.056 1.9901L125.881 104.919L73.6574 14.5644L63.7264 20.3235L115.573 110.723L35.871 43.8044L28.5086 52.6209L107.989 119.94L10.241 84.3513L6.32171 95.169L103.96 131.002L0 131.247V142.754L103.96 142.998L6.32171 178.82L10.241 189.638L107.978 154.06L28.5086 221.368L35.871 230.184L115.573 163.266L64.5457 252.253L63.7375 253.677L73.6574 259.436L125.881 169.07L108.056 271.999L119.338 274L137.494 171.315L155.651 274L166.944 271.999L149.119 169.07L201.343 259.436L211.263 253.677L159.416 163.266L239.118 230.184L246.491 221.368L167.011 154.06L264.759 189.638L268.678 178.82L171.041 142.998L275 142.754Z" fill="url(#paint0_linear_1_52)" style="mix-blend-mode:luminosity"/>
<defs>
<linearGradient id="paint0_linear_1_52" x1="216.544" y1="31.6637" x2="57.4531" y2="241.906" gradientUnits="userSpaceOnUse">
<stop stop-color="#910DFF" stop-opacity="0"/>
<stop offset="0.94" stop-color="#0000FF"/>
</linearGradient>
</defs>
</svg>
