<svg width="144" height="44" viewBox="0 0 144 44" fill="none" xmlns="http://www.w3.org/2000/svg">
<g clip-path="url(#clip0_23_26)">
<path d="M98.5345 0.00581127V0H0V44H98.5345L144 43.9971V0.00581127H98.5345ZM93.5796 39.2086H4.95496V4.79139H93.5796V39.2086ZM136.511 23.1114L125.399 23.1376L135.835 26.8248L135.051 28.9111L124.601 25.2441L133.099 32.177L131.625 33.8768L123.111 26.9875L128.649 36.2943L126.667 37.4042L121.078 28.0888L122.985 38.7001L120.73 39.0837L118.79 28.5159L116.85 39.0837L114.595 38.7001L116.502 28.0888L110.916 37.4042L108.931 36.2943L109.246 35.7654L114.468 26.9875L105.955 33.8768L104.48 32.177L112.979 25.2441L102.529 28.9111L101.745 26.8248L112.18 23.1376L101.069 23.1114V20.8944L112.18 20.8683L101.745 17.1781L102.529 15.0948L112.979 18.7617L104.48 11.8259L105.955 10.129L114.468 17.0183L108.931 7.71155L110.916 6.6016L116.502 15.9171L114.595 5.30569L116.85 4.92214L118.79 15.487L120.73 4.92214L122.985 5.30569L121.078 15.9171L126.667 6.6016L128.646 7.70864L128.336 8.23747L123.111 17.0183L131.625 10.129L133.096 11.8259L132.619 12.2182L124.601 18.7617L135.051 15.0948L135.835 17.1781L125.399 20.8683L136.511 20.8944V23.1114Z" fill="white"/>
<path d="M31.1231 17.149C30.5555 15.7282 29.6786 14.5049 28.5195 13.5112C27.3663 12.5204 25.8949 11.7504 24.1471 11.2216C22.4114 10.6956 20.3423 10.4283 18 10.4283H9.71167V33.5688L18.027 33.5862C20.3723 33.5862 22.4444 33.2898 24.1831 32.7116C25.9309 32.1276 27.3994 31.3053 28.5465 30.268C29.6997 29.2249 30.5675 27.9725 31.1291 26.5488C31.6876 25.1308 31.9699 23.5705 31.9699 21.9056C31.9699 20.1564 31.6846 18.5554 31.1231 17.149ZM26.1771 24.8461C25.8648 25.7061 25.3873 26.45 24.7657 27.0543C24.1441 27.6587 23.3543 28.1323 22.4174 28.4665C21.4684 28.8006 20.3483 28.9692 19.081 28.9692H14.7897V15.057H19.081C20.3483 15.057 21.4714 15.2226 22.4204 15.5422C23.3573 15.8618 24.1501 16.318 24.7717 16.8992C25.3903 17.4803 25.8648 18.198 26.1801 19.0348C26.4955 19.8803 26.6576 20.8479 26.6576 21.9056C26.6576 22.9632 26.4955 23.9744 26.1771 24.8461Z" fill="white"/>
<path d="M52.4595 26.1972C53.1592 25.8863 53.7838 25.5086 54.3243 25.0727C54.961 24.5584 55.4955 23.9628 55.9159 23.3003C56.3333 22.6436 56.6487 21.9114 56.8499 21.1298C57.0511 20.354 57.1502 19.5259 57.1502 18.6687C57.1502 17.3989 56.946 16.2396 56.5375 15.2284C56.1261 14.2056 55.4925 13.3223 54.6487 12.6104C53.8138 11.9015 52.7478 11.3552 51.4895 10.9833C50.2403 10.6143 48.7538 10.4283 47.0631 10.4283H35.6997V33.5717H40.7748V27.1706L47.024 27.1851L51.1021 33.5717H57.2913L52.4595 26.1972ZM51.5496 20.2987C51.3634 20.7695 51.0751 21.1763 50.6967 21.5017C50.3123 21.8358 49.8258 22.0973 49.2493 22.2833C48.6637 22.4722 47.964 22.568 47.1742 22.568H40.7748V15.057H47.1742C48.7568 15.057 49.946 15.3766 50.7117 16.0071C51.4685 16.6347 51.8378 17.5035 51.8378 18.6687C51.8378 19.2702 51.7418 19.8164 51.5496 20.2987Z" fill="white"/>
<path d="M66.2191 10.4283H61.114V33.5688H66.2191V10.4283Z" fill="white"/>
<path d="M71.1411 33.5717V10.4283H76.2162V28.914H88.8228V33.5717H71.1411Z" fill="white"/>
</g>
<defs>
<clipPath id="clip0_23_26">
<rect width="144" height="44" fill="white"/>
</clipPath>
</defs>
</svg>
