<svg width="105" height="93" viewBox="0 0 105 93" fill="none" xmlns="http://www.w3.org/2000/svg">
<rect x="17.0375" y="8.51877" width="70.9898" height="59.6314" fill="white"/>
<g filter="url(#filter0_b_1_167)">
<path d="M8.69625 0C3.89157 0 0 3.46769 0 7.74902V65.8667C0 70.148 3.89157 73.6157 8.69625 73.6157H26.0887V89.1138C26.0887 91.2525 28.0367 92.9883 30.4369 92.9883C31.9052 92.9883 33.1399 92.2949 33.9272 91.3007L33.9952 91.3234L48.9164 73.6157H95.6587C100.463 73.6157 104.355 70.148 104.355 65.8667V7.74902C104.355 3.46769 100.463 0 95.6587 0H8.69625ZM36.959 23.2471C42.9638 23.2471 47.8294 27.5826 47.8294 32.9333V34.8706C47.8294 43.4488 43.0447 51.4113 35.0398 56.1653L32.8487 57.4669L28.025 51.0194L30.2161 49.7178C33.251 47.9162 35.594 45.4406 37.1289 42.6045C37.068 42.6045 37.0156 42.6196 36.959 42.6196C30.9543 42.6196 26.0887 38.284 26.0887 32.9333C26.0887 27.5826 30.9543 23.2471 36.959 23.2471ZM67.3959 23.2471C73.4007 23.2471 78.2662 27.5826 78.2662 32.9333V34.8706C78.2662 43.4488 73.4815 51.4113 65.4766 56.1653L63.2856 57.4669L58.4619 51.0194L60.6529 49.7178C63.6879 47.9162 66.0309 45.4406 67.5658 42.6045C67.5049 42.6045 67.4524 42.6196 67.3959 42.6196C61.3911 42.6196 56.5256 38.284 56.5256 32.9333C56.5256 27.5826 61.3911 23.2471 67.3959 23.2471Z" fill="url(#paint0_linear_1_167)"/>
</g>
<defs>
<filter id="filter0_b_1_167" x="-4" y="-4" width="112.355" height="100.988" filterUnits="userSpaceOnUse" color-interpolation-filters="sRGB">
<feFlood flood-opacity="0" result="BackgroundImageFix"/>
<feGaussianBlur in="BackgroundImageFix" stdDeviation="2"/>
<feComposite in2="SourceAlpha" operator="in" result="effect1_backgroundBlur_1_167"/>
<feBlend mode="normal" in="SourceGraphic" in2="effect1_backgroundBlur_1_167" result="shape"/>
</filter>
<linearGradient id="paint0_linear_1_167" x1="104.355" y1="6.62823e-06" x2="-80.1234" y2="153.064" gradientUnits="userSpaceOnUse">
<stop stop-color="#AA00FF"/>
<stop offset="0.885995" stop-color="#0000F0"/>
</linearGradient>
</defs>
</svg>
