<svg width="56" height="55" viewBox="0 0 56 55" fill="none" xmlns="http://www.w3.org/2000/svg">
<path d="M28.0484 54.9468C30.1377 54.9468 32.1717 54.7101 34.1251 54.2621C35.6412 53.9144 36.0633 52.0568 34.9634 50.9569C34.4242 50.4177 33.6394 50.216 32.8938 50.3758C31.3316 50.7106 29.7106 50.8869 28.0484 50.8869C15.3392 50.8869 5.03648 40.5841 5.03648 27.8751C5.03648 15.1659 15.3392 4.86314 28.0484 4.86314C40.7575 4.86314 51.0602 15.1659 51.0602 27.8751C51.0602 29.5346 50.8845 31.1531 50.5508 32.7131C50.3913 33.4584 50.5931 34.2428 51.132 34.7818C52.2321 35.8819 54.0901 35.4595 54.4374 33.9429C54.8841 31.9922 55.1201 29.9611 55.1201 27.8751C55.1201 12.9234 42.9997 0.803215 28.0484 0.803215C13.097 0.803215 0.976562 12.9234 0.976562 27.8751C0.976562 42.8263 13.097 54.9468 28.0484 54.9468ZM28.0484 44.1146C28.9319 44.1146 29.799 44.0441 30.6442 43.9082C31.5167 43.7681 32.1132 42.9842 32.1132 42.1006C32.1133 40.7633 30.7773 39.823 29.4486 39.9751C28.9891 40.0277 28.5219 40.0547 28.0484 40.0547C21.3216 40.0547 15.8685 34.6016 15.8685 27.8748C15.8685 21.1483 21.3216 15.695 28.0484 15.695C34.7748 15.695 40.2281 21.1483 40.2281 27.8748C40.2281 28.3469 40.2012 28.8128 40.1489 29.2709C39.9973 30.5993 40.9374 31.9347 42.2744 31.9347C43.1583 31.9347 43.9425 31.3378 44.0824 30.465C44.2177 29.6216 44.288 28.7564 44.288 27.8748C44.288 18.9059 37.0173 11.6351 28.0484 11.6351C19.0794 11.6351 11.8086 18.9059 11.8086 27.8748C11.8086 36.8439 19.0794 44.1146 28.0484 44.1146ZM33.4616 27.8748C33.4616 24.8853 31.0378 22.4616 28.0484 22.4616C25.0586 22.4616 22.6351 24.8853 22.6351 27.8748C22.6351 30.8645 25.0586 33.288 28.0484 33.288C29.3627 33.288 30.7745 33.467 31.7039 34.3964L33.7263 36.4188C34.4266 37.1191 34.82 38.0689 34.82 39.0593L34.8198 46.1445C34.8198 46.6829 35.0336 47.1992 35.4144 47.5799L42.1806 54.3466C42.7612 54.9272 43.6344 55.1009 44.3928 54.7867C45.1514 54.4725 45.6459 53.7323 45.6459 52.9113V49.202C45.6459 47.1398 47.3177 45.468 49.3799 45.4679L53.0896 45.4679C53.9108 45.4679 54.6511 44.9733 54.965 44.2147C55.2793 43.4562 55.1058 42.5831 54.5252 42.0025L47.7584 35.236C47.3776 34.8553 46.8615 34.6414 46.3231 34.6414L39.2374 34.6414C38.247 34.6414 37.2972 34.248 36.597 33.5477L34.5676 31.5183C33.6411 30.5918 33.4616 29.1851 33.4616 27.8748ZM44.9216 38.7013C45.2805 38.7013 45.6247 38.8439 45.8786 39.0977C46.7312 39.9503 46.1274 41.4081 44.9216 41.4081L43.616 41.4081C42.4949 41.4081 41.586 42.317 41.586 43.4381V44.7433C41.586 45.9489 40.1284 46.5526 39.276 45.7001C39.0222 45.4463 38.8797 45.1022 38.8797 44.7433L38.8799 38.9736C38.8799 38.9019 38.9112 38.8343 38.9617 38.7835C39.0125 38.7326 39.0805 38.7013 39.1524 38.7013H44.9216Z" fill="#AA00FF"/>
</svg>
