<svg width="15" height="15" viewBox="0 0 15 15" fill="none" xmlns="http://www.w3.org/2000/svg">
<path d="M14.9877 7.05768C14.7327 2.70778 10.7807 -0.644648 6.22881 0.105335C3.09421 0.622823 0.58204 3.16527 0.0946038 6.3002C-0.190359 8.11516 0.184592 9.83262 1.00199 11.2501L0.334573 13.7325C0.184592 14.295 0.702025 14.805 1.25695 14.6475L3.70163 13.9725C4.81149 14.625 6.10882 15 7.49614 15C11.7256 15 15.2351 11.2726 14.9877 7.05768ZM11.1632 10.2901C10.9823 10.6611 10.6733 10.9542 10.2933 11.1151C10.0683 11.2126 9.82084 11.2576 9.55837 11.2576C9.17592 11.2576 8.76347 11.1676 8.33603 10.9801C7.88047 10.78 7.44799 10.5311 7.0462 10.2376C6.61126 9.92261 6.20631 9.57012 5.81636 9.18763C5.42641 8.79764 5.08145 8.38515 4.7665 7.95766C4.45904 7.53017 4.21157 7.10268 4.03159 6.67519C3.85161 6.2477 3.76163 5.83521 3.76163 5.44521C3.76163 5.19022 3.80662 4.94273 3.89661 4.71773C3.9866 4.48524 4.12908 4.27524 4.33155 4.08775C4.57152 3.84775 4.83399 3.73525 5.11145 3.73525C5.21644 3.73525 5.32142 3.75775 5.41891 3.80275C5.5164 3.84775 5.60639 3.91525 5.67388 4.01275L6.54376 5.24272C6.61126 5.34022 6.66375 5.42272 6.69374 5.50521C6.73124 5.58771 6.74624 5.66271 6.74624 5.73771C6.74624 5.82771 6.71624 5.9177 6.66375 6.0077C6.61126 6.0977 6.54376 6.1877 6.45378 6.2777L6.16881 6.57769C6.12382 6.62269 6.10882 6.66769 6.10882 6.72769C6.10882 6.75769 6.11632 6.78768 6.12382 6.81768C6.13882 6.84768 6.14632 6.87018 6.15381 6.89268C6.22131 7.02018 6.34129 7.17768 6.50627 7.37267C6.85736 7.78529 7.24105 8.16901 7.65362 8.52015C7.84859 8.68514 8.01357 8.79764 8.14106 8.86514C8.16355 8.87264 8.18605 8.88764 8.20855 8.89514C8.23854 8.91014 8.26854 8.91014 8.30603 8.91014C8.37353 8.91014 8.41852 8.88764 8.46351 8.84264L8.74848 8.55764C8.84596 8.46015 8.93595 8.39265 9.01844 8.34765C9.10843 8.29515 9.19092 8.26515 9.28841 8.26515C9.3634 8.26515 9.43839 8.28015 9.52088 8.31765C9.60336 8.35515 9.69335 8.40015 9.78334 8.46765L11.0282 9.35263C11.1257 9.42013 11.1932 9.50262 11.2382 9.59262C11.2756 9.69012 11.2981 9.78012 11.2981 9.88512C11.2531 10.0126 11.2232 10.1551 11.1632 10.2901Z" fill="white"/>
</svg>
