<svg width="24" height="24" viewBox="0 0 24 24" fill="#d3d3d3" xmlns="http://www.w3.org/2000/svg">
<path d="M15.6271 7.53371C15.9526 7.20829 15.9526 6.68064 15.6271 6.3552C15.3017 6.02976 14.7741 6.02974 14.4487 6.35518L9.48234 11.3212L7.84514 9.68411C7.5197 9.35867 6.99206 9.35867 6.66663 9.68411C6.34119 10.0094 6.34119 10.5371 6.66663 10.8626L8.89312 13.089C9.21845 13.4144 9.74612 13.4144 10.0716 13.089L15.6271 7.53371ZM4.48245 0C2.48808 0 0.871338 1.61674 0.871338 3.61111V16.3889C0.871338 18.3832 2.48808 20 4.48245 20H17.2602C19.2546 20 20.8713 18.3832 20.8713 16.3889V3.61111C20.8713 1.61674 19.2546 0 17.2602 0H4.48245ZM2.538 3.61111C2.538 2.53722 3.40856 1.66667 4.48245 1.66667H17.2602C18.3341 1.66667 19.2047 2.53722 19.2047 3.61111V16.3889C19.2047 17.4628 18.3341 18.3333 17.2602 18.3333H4.48245C3.40856 18.3333 2.538 17.4628 2.538 16.3889V3.61111Z" fill="#808080"/>
<path d="M15.6271 7.53371C15.9526 7.20829 15.9526 6.68064 15.6271 6.3552C15.3017 6.02976 14.7741 6.02974 14.4487 6.35518L9.48234 11.3212L7.84514 9.68411C7.5197 9.35867 6.99206 9.35867 6.66663 9.68411C6.34119 10.0094 6.34119 10.5371 6.66663 10.8626L8.89312 13.089C9.21845 13.4144 9.74612 13.4144 10.0716 13.089L15.6271 7.53371ZM4.48245 0C2.48808 0 0.871338 1.61674 0.871338 3.61111V16.3889C0.871338 18.3832 2.48808 20 4.48245 20H17.2602C19.2546 20 20.8713 18.3832 20.8713 16.3889V3.61111C20.8713 1.61674 19.2546 0 17.2602 0H4.48245ZM2.538 3.61111C2.538 2.53722 3.40856 1.66667 4.48245 1.66667H17.2602C18.3341 1.66667 19.2047 2.53722 19.2047 3.61111V16.3889C19.2047 17.4628 18.3341 18.3333 17.2602 18.3333H4.48245C3.40856 18.3333 2.538 17.4628 2.538 16.3889V3.61111Z" stroke="gray"/>
</svg>
