<svg width="12" height="12" viewBox="0 0 12 12" fill="none" xmlns="http://www.w3.org/2000/svg">
<path d="M10.7838 2.12277C10.7838 1.15298 9.98877 0.366821 9.00792 0.366821H2.72394C1.74313 0.366821 0.948029 1.15298 0.948029 2.12277V8.759C0.948029 9.46332 1.80637 9.81916 2.31436 9.32544L4.51605 7.18573C4.51985 7.18205 4.52356 7.17832 4.52718 7.17449L5.57915 6.15593L5.62483 6.11768C5.78406 6.00292 6.00777 6.01573 6.15263 6.15593L7.28873 7.25618L7.86844 6.68298L6.72612 5.5769L6.65595 5.51396C6.17602 5.11517 5.46096 5.13613 5.00572 5.57685L2.57266 7.93219H2.57867L1.76768 8.72037V2.12277C1.76768 1.60058 2.19581 1.17726 2.72394 1.17726H9.00792C9.53605 1.17726 9.96418 1.60058 9.96418 2.12277V4.81471C10.2259 4.71179 10.5071 4.67213 10.7838 4.69574V2.12277ZM8.87366 3.47464C8.87366 2.80262 8.32269 2.25784 7.64298 2.25784C6.96332 2.25784 6.41235 2.80262 6.41235 3.47464C6.41235 4.14665 6.96332 4.69142 7.64298 4.69142C8.32269 4.69142 8.87366 4.14665 8.87366 3.47464ZM7.23201 3.47464C7.23201 3.25021 7.41605 3.06828 7.64298 3.06828C7.86997 3.06828 8.05401 3.25021 8.05401 3.47464C8.05401 3.69907 7.86997 3.881 7.64298 3.881C7.41605 3.881 7.23201 3.69907 7.23201 3.47464ZM6.52028 8.78018L9.74555 5.59117C10.2333 5.10885 11.0241 5.10885 11.5118 5.59117C11.9996 6.07343 11.9996 6.85534 11.5118 7.3376L8.28657 10.5266C8.09854 10.7126 7.86292 10.8445 7.60489 10.9082L6.60454 11.1555C6.57732 11.1623 6.55022 11.167 6.52344 11.17C6.2005 11.2802 4.89523 11.4801 4.43186 11.1225C4.11795 10.8802 4.18043 10.4015 4.31295 10.14C4.33414 10.0982 4.30209 10.0433 4.25533 10.0506C3.89427 10.1063 3.57604 10.294 3.25729 10.4821C2.82892 10.7348 2.39962 10.988 1.86416 10.9223C1.32928 10.8565 1.06195 10.5301 0.929707 10.2445C0.875659 10.1278 1.02784 10.0277 1.14179 10.0892C1.39786 10.2274 1.74599 10.3571 2.03307 10.2943C2.23805 10.2495 2.52695 10.0474 2.85069 9.82099C3.43279 9.41389 4.12752 8.92795 4.64957 9.13564C5.10802 9.31804 5.44697 9.75756 5.21233 10.2775C5.18353 10.3412 5.21249 10.4197 5.28134 10.4354C5.51265 10.4878 5.70653 10.4712 5.90045 10.3791L6.13433 9.45419C6.19881 9.19907 6.33219 8.96609 6.52028 8.78018Z" fill="#AA00FF"/>
</svg>
