<svg width="56" height="56" viewBox="0 0 56 56" fill="none" xmlns="http://www.w3.org/2000/svg">
<path d="M49.6487 9.04736C49.6487 4.11131 45.6475 0.109863 40.7112 0.109863H9.08632C4.15029 0.109863 0.148824 4.11131 0.148824 9.04736V42.8248C0.148824 46.4097 4.46852 48.2208 7.02506 45.7079L18.1054 34.8171C18.1245 34.7984 18.1431 34.7794 18.1614 34.7599L23.4555 29.5756L23.6854 29.3809C24.4868 28.7968 25.6126 28.8619 26.3417 29.5756L30.6008 33.7472C31.4087 34.5385 32.7031 34.5318 33.5027 33.7321V33.7321C34.3143 32.9206 34.3074 31.6027 33.4874 30.7998L29.2278 26.6284L28.8747 26.308C26.4594 24.2782 22.8607 24.3849 20.5697 26.6281L8.3358 38.6059C8.33185 38.6097 8.33459 38.6165 8.34012 38.6165V38.6165C8.34565 38.6165 8.34839 38.6232 8.34445 38.627L6.28967 40.6467C5.5402 41.3834 4.27382 40.8525 4.27382 39.8016V9.04736C4.27382 6.38949 6.42845 4.23486 9.08632 4.23486H40.7112C43.3691 4.23486 45.5237 6.38949 45.5237 9.04736V20.3305C45.5237 21.4899 46.7172 22.2921 47.8696 22.1647V22.1647C48.8256 22.0591 49.6487 21.3168 49.6487 20.355V9.04736ZM40.0356 15.9282C40.0356 12.5077 37.2627 9.73486 33.842 9.73486C30.4216 9.73486 27.6487 12.5077 27.6487 15.9282C27.6487 19.3486 30.4216 22.1214 33.842 22.1214C37.2627 22.1214 40.0356 19.3486 40.0356 15.9282ZM31.7737 15.9282C31.7737 14.7859 32.6999 13.8599 33.842 13.8599C34.9844 13.8599 35.9106 14.7859 35.9106 15.9282C35.9106 17.0705 34.9844 17.9965 33.842 17.9965C32.6999 17.9965 31.7737 17.0705 31.7737 15.9282ZM28.1919 42.9326L44.4235 26.701C46.8781 24.2461 50.8579 24.2461 53.3126 26.701C55.7672 29.1556 55.7672 33.1354 53.3126 35.5901L37.081 51.8217C36.1347 52.7682 34.9489 53.4395 33.6503 53.764L28.6159 55.0227V55.0227C28.3484 55.0898 28.0785 55.1439 27.8122 55.2157C25.7118 55.7822 19.8556 56.5513 17.6816 54.8547C16.1019 53.6216 16.4163 51.1851 17.0832 49.8538C17.1899 49.6409 17.0286 49.3618 16.7933 49.3987C14.9761 49.6825 13.3746 50.6378 11.7705 51.5951C9.61465 52.8813 7.45414 54.1702 4.75939 53.8355C2.0675 53.5008 0.722171 51.8396 0.0566161 50.3859C-0.215386 49.7919 0.550488 49.2823 1.12397 49.5956C2.41268 50.2987 4.16465 50.959 5.60944 50.6395C6.64102 50.4112 8.09495 49.3827 9.72419 48.2302C12.6537 46.1581 16.15 43.6847 18.7773 44.7418C21.0845 45.6702 22.7903 47.9073 21.6095 50.5537C21.4645 50.8782 21.6103 51.2777 21.9568 51.3575C22.4172 51.463 22.8482 51.5136 23.2614 51.5071C24.451 51.4886 25.2395 50.4031 25.5281 49.2489L26.2495 46.3632C26.574 45.0647 27.2453 43.8789 28.1919 42.9326Z" fill="url(#paint0_linear_1_180)"/>
<defs>
<linearGradient id="paint0_linear_1_180" x1="28" y1="0.109865" x2="-31.4954" y2="44.4451" gradientUnits="userSpaceOnUse">
<stop stop-color="#AA00FF"/>
<stop offset="1" stop-color="#4305F4"/>
</linearGradient>
</defs>
</svg>

