<svg width="56" height="56" viewBox="0 0 56 56" fill="none" xmlns="http://www.w3.org/2000/svg">
<path d="M27.951 0.336304C30.1102 0.360199 32.2607 0.599714 34.3681 1.05101C35.2879 1.24802 35.9759 1.98441 36.0803 2.88386L36.581 7.19641C36.8078 9.17651 38.5489 10.6762 40.6245 10.6783C41.1825 10.6792 41.7343 10.5676 42.25 10.3486L46.3699 8.61077C47.2268 8.24932 48.2281 8.44638 48.8676 9.10239C51.8451 12.1557 54.0624 15.8177 55.3532 19.8127C55.6314 20.6741 55.3111 21.6103 54.5551 22.1455L50.9032 24.7301C49.8613 25.4651 49.2462 26.6321 49.2462 27.8735C49.2462 29.1146 49.8613 30.2816 50.9055 31.0183L54.5604 33.6038C55.3167 34.1387 55.6373 35.0751 55.3591 35.9368C54.0689 39.9312 51.8527 43.5928 48.877 46.6466C48.2381 47.3025 47.2377 47.5002 46.3808 47.1395L42.2441 45.3993C41.0604 44.902 39.7014 44.9748 38.5827 45.5956C37.4644 46.2162 36.7201 47.3107 36.5781 48.5435L36.0806 52.8557C35.978 53.7448 35.305 54.4764 34.3984 54.6834C30.1378 55.6567 25.6987 55.6567 21.4379 54.6834C20.5316 54.4764 19.8584 53.7448 19.7558 52.8557L19.2592 48.55C19.1133 47.3194 18.3679 46.2283 17.2503 45.6098C16.1328 44.9912 14.7758 44.9186 13.5962 45.4132L9.45854 47.1536C8.60151 47.5143 7.60082 47.3166 6.96177 46.6602C3.98444 43.603 1.76818 39.9368 0.479801 35.9382C0.202294 35.077 0.522925 34.1413 1.27888 33.6066L4.93621 31.0194C5.97793 30.2845 6.59316 29.1174 6.59316 27.8763C6.59316 26.635 5.97793 25.4679 4.93483 24.7321L1.27979 22.1493C0.522748 21.6143 0.201824 20.6775 0.480301 19.8155C1.77091 15.8205 3.98832 12.1585 6.96574 9.10522C7.60541 8.44921 8.60657 8.25214 9.46345 8.61359L13.5828 10.3511C14.768 10.8506 16.1307 10.7751 17.2543 10.1448C18.373 9.52174 19.1178 8.42621 19.2616 7.19311L19.7619 2.88386C19.8663 1.98396 20.555 1.24731 21.4755 1.05073C23.5855 0.600166 25.7384 0.360735 27.951 0.336304ZM27.9516 4.57273C27.5437 4.57734 27.1361 4.59086 26.7291 4.61327C25.0899 4.70354 23.8359 6.03271 23.6467 7.66349C23.3472 10.2324 21.7968 12.5127 19.4741 13.8063C17.1372 15.1172 14.288 15.275 11.8089 14.2304L11.6771 14.1748C10.1813 13.5439 8.42305 13.9356 7.51556 15.2817C7.12571 15.8599 6.76263 16.4544 6.42737 17.0633C5.61431 18.5401 6.17194 20.3459 7.54873 21.3187C9.72198 22.8519 11.0055 25.2868 11.0055 27.8763C11.0055 30.4655 9.72198 32.9005 7.55102 34.4319C6.17165 35.4077 5.61243 37.2171 6.42625 38.6978C6.76207 39.3088 7.12588 39.9053 7.5166 40.4855C8.42311 41.8316 10.1804 42.2246 11.6763 41.5954L11.8281 41.5315C14.2935 40.498 17.1233 40.6492 19.4538 41.9391C21.7844 43.229 23.339 45.5044 23.644 48.0772C23.8337 49.7216 25.0918 51.0696 26.7452 51.1487C27.5268 51.1861 28.3099 51.1861 29.0915 51.1487C30.7448 51.0696 32.0028 49.7217 32.1925 48.0775C32.489 45.5056 34.0418 43.2222 36.3751 41.9275C38.7083 40.6325 41.544 40.4805 44.0137 41.5185L44.1643 41.5818C45.6598 42.2109 47.4166 41.8184 48.3234 40.473C48.7134 39.8943 49.0766 39.2995 49.412 38.6901C50.2254 37.2121 49.6678 35.4051 48.2905 34.4308C46.1173 32.8977 44.8338 30.4627 44.8338 27.8735C44.8338 25.284 46.1173 22.849 48.2878 21.3178C49.6633 20.3443 50.2201 18.5394 49.4075 17.0631C49.0719 16.4533 48.7083 15.8579 48.318 15.2789C47.4105 13.9328 45.6522 13.541 44.1564 14.1719L44.0299 14.2253C42.9554 14.6818 41.7929 14.9168 40.6189 14.915C36.2957 14.9107 32.6673 11.7854 32.1954 7.66251C32.0061 6.03156 30.7526 4.70111 29.1132 4.61128C28.7245 4.58998 28.337 4.57712 27.9516 4.57273ZM27.9143 17.283C34.0065 17.283 38.9451 22.0251 38.9451 27.8749C38.9451 33.7244 34.0065 38.4667 27.9143 38.4667C21.8221 38.4667 16.8834 33.7244 16.8834 27.8749C16.8834 22.0251 21.8221 17.283 27.9143 17.283ZM27.9143 21.5197C24.2591 21.5197 21.2958 24.3649 21.2958 27.8749C21.2958 31.3846 24.2591 34.23 27.9143 34.23C31.5695 34.23 34.5328 31.3846 34.5328 27.8749C34.5328 24.3649 31.5695 21.5197 27.9143 21.5197Z" fill="#AA00FF"/>
</svg>
