<svg width="59" height="60" viewBox="0 0 59 60" fill="none" xmlns="http://www.w3.org/2000/svg">
<path d="M29.5336 0.5C31.8465 0.525597 34.1503 0.782172 36.4077 1.26561C37.3931 1.47665 38.1301 2.2655 38.242 3.22901L38.7783 7.84873C39.0212 9.96986 40.8863 11.5764 43.1097 11.5787C43.7075 11.5796 44.2986 11.46 44.851 11.2254L49.2644 9.36382C50.1823 8.97663 51.255 9.18773 51.94 9.89046C55.1295 13.1613 57.5048 17.084 58.8875 21.3636C59.1856 22.2864 58.8425 23.2893 58.0326 23.8625L54.1206 26.6313C53.0044 27.4186 52.3456 28.6688 52.3456 29.9986C52.3456 31.328 53.0045 32.5782 54.1231 33.3673L58.0383 36.137C58.8484 36.7101 59.1919 37.7131 58.8938 38.6362C57.5118 42.9151 55.1377 46.8375 51.9501 50.1088C51.2657 50.8114 50.194 51.0232 49.2761 50.6368L44.8447 48.7727C43.5767 48.2399 42.1209 48.318 40.9226 48.983C39.7245 49.6477 38.9273 50.8202 38.7751 52.1409L38.2423 56.7601C38.1323 57.7126 37.4113 58.4962 36.4402 58.718C31.8762 59.7607 27.1209 59.7607 22.5566 58.718C21.5857 58.4962 20.8646 57.7126 20.7547 56.7601L20.2227 52.1478C20.0665 50.8295 19.2679 49.6607 18.0707 48.9981C16.8736 48.3355 15.42 48.2577 14.1564 48.7875L9.72398 50.6519C8.80592 51.0383 7.73395 50.8265 7.04938 50.1234C3.85999 46.8484 1.48587 42.9211 0.105728 38.6377C-0.191545 37.7152 0.151923 36.7128 0.961718 36.14L4.87955 33.3685C5.99547 32.5813 6.65452 31.3311 6.65452 30.0016C6.65452 28.6718 5.99547 27.4216 4.87807 26.6334L0.962695 23.8666C0.151733 23.2936 -0.192049 22.2901 0.106263 21.3666C1.4888 17.0871 3.86414 13.1643 7.05363 9.89349C7.73887 9.19075 8.81134 8.97965 9.72925 9.36685L14.142 11.2281C15.4116 11.7632 16.8714 11.6823 18.075 11.0071C19.2734 10.3397 20.0712 9.16612 20.2253 7.84519L20.7612 3.22901C20.8731 2.26501 21.6108 1.47589 22.5969 1.26531C24.8571 0.782656 27.1634 0.526172 29.5336 0.5ZM29.5343 5.03817C29.0972 5.04311 28.6606 5.05759 28.2247 5.0816C26.4687 5.1783 25.1254 6.60214 24.9227 8.34908C24.6019 11.1009 22.9411 13.5436 20.4529 14.9294C17.9496 16.3337 14.8974 16.5027 12.2417 15.3837L12.1006 15.3242C10.4983 14.6483 8.61475 15.0679 7.64262 16.5099C7.225 17.1293 6.83606 17.7661 6.47692 18.4184C5.60595 20.0004 6.2033 21.9348 7.67815 22.9769C10.0062 24.6193 11.3811 27.2277 11.3811 30.0016C11.3811 32.7752 10.0062 35.3836 7.6806 37.0241C6.20298 38.0694 5.60393 40.0077 6.47572 41.5939C6.83546 42.2484 7.22518 42.8874 7.64373 43.5089C8.61481 44.9509 10.4972 45.3718 12.0997 44.6978L12.2624 44.6294C14.9033 43.5223 17.9347 43.6842 20.4312 45.066C22.9278 46.4478 24.5931 48.8853 24.9198 51.6413C25.1231 53.4028 26.4708 54.8469 28.2419 54.9316C29.0792 54.9716 29.9181 54.9716 30.7554 54.9316C32.5264 54.8468 33.8739 53.403 34.0772 51.6416C34.3948 48.8865 36.0583 46.4405 38.5577 45.0536C41.0571 43.6663 44.0948 43.5035 46.7404 44.6155L46.9017 44.6833C48.5037 45.3572 50.3856 44.9367 51.357 43.4955C51.7748 42.8756 52.1639 42.2384 52.5231 41.5856C53.3946 40.0023 52.7972 38.0666 51.3218 37.0229C48.9938 35.3806 47.6189 32.7722 47.6189 29.9986C47.6189 27.2246 48.9938 24.6162 51.3189 22.9759C52.7924 21.9331 53.3888 19.9996 52.5184 18.4182C52.1589 17.7649 51.7694 17.1272 51.3512 16.5069C50.3791 15.0649 48.4956 14.6452 46.8932 15.3211L46.7578 15.3782C45.6067 15.8673 44.3614 16.119 43.1038 16.1171C38.4726 16.1125 34.5858 12.7646 34.0803 8.34802C33.8775 6.60091 32.5347 5.17569 30.7785 5.07946C30.3622 5.05665 29.9471 5.04287 29.5343 5.03817ZM29.4943 18.6537C36.0205 18.6537 41.3108 23.7336 41.3108 30.0001C41.3108 36.2662 36.0205 41.3463 29.4943 41.3463C22.9682 41.3463 17.6777 36.2662 17.6777 30.0001C17.6777 23.7336 22.9682 18.6537 29.4943 18.6537ZM29.4943 23.1922C25.5787 23.1922 22.4043 26.2401 22.4043 30.0001C22.4043 33.7597 25.5787 36.8078 29.4943 36.8078C33.4098 36.8078 36.5842 33.7597 36.5842 30.0001C36.5842 26.2401 33.4098 23.1922 29.4943 23.1922Z" fill="url(#paint0_linear_1_187)"/>
<defs>
<linearGradient id="paint0_linear_1_187" x1="29.9527" y1="0.500002" x2="-33.1764" y2="48.078" gradientUnits="userSpaceOnUse">
<stop stop-color="#AA00FF"/>
<stop offset="1" stop-color="#4305F4"/>
</linearGradient>
</defs>
</svg>
