<svg width="12" height="12" viewBox="0 0 12 12" fill="none" xmlns="http://www.w3.org/2000/svg">
<path d="M6.4043 0.458862C6.83392 0.463617 7.26184 0.511276 7.68116 0.601074C7.86418 0.640274 8.00109 0.786802 8.02187 0.965774L8.12149 1.82388C8.16661 2.21788 8.51306 2.5163 8.92605 2.51671C9.03709 2.51688 9.14689 2.49468 9.2495 2.4511L10.0693 2.10531C10.2398 2.03339 10.439 2.0726 10.5663 2.20313C11.1587 2.81068 11.5999 3.53933 11.8568 4.33426C11.9121 4.50567 11.8484 4.69195 11.698 4.79843L10.9713 5.31273C10.764 5.45897 10.6416 5.69119 10.6416 5.93819C10.6416 6.18514 10.764 6.41736 10.9718 6.56394L11.699 7.0784C11.8495 7.18485 11.9133 7.37115 11.8579 7.54262C11.6012 8.33742 11.1602 9.06601 10.5681 9.67366C10.441 9.80416 10.2419 9.8435 10.0714 9.77173L9.24833 9.42547C9.0128 9.3265 8.74238 9.341 8.51979 9.46453C8.29726 9.58801 8.14917 9.80579 8.1209 10.0511L8.02193 10.9091C8.0015 11.086 7.86758 11.2316 7.68719 11.2728C6.83942 11.4665 5.95613 11.4665 5.10833 11.2728C4.92798 11.2316 4.79403 11.086 4.77362 10.9091L4.67481 10.0524C4.64578 9.80753 4.49745 9.59042 4.27508 9.46734C4.05271 9.34426 3.7827 9.32982 3.54799 9.42823L2.72468 9.77454C2.55415 9.84631 2.35503 9.80697 2.22787 9.67636C1.63545 9.06804 1.19446 8.33854 0.938096 7.5429C0.882878 7.37155 0.946677 7.18535 1.0971 7.07896L1.82483 6.56416C2.03211 6.41793 2.15453 6.1857 2.15453 5.93876C2.15453 5.69175 2.03211 5.45953 1.82455 5.31312L1.09728 4.79919C0.946641 4.69275 0.882784 4.50635 0.938195 4.33482C1.195 3.53989 1.63622 2.81124 2.22866 2.20369C2.35594 2.07316 2.55515 2.03395 2.72566 2.10587L3.54531 2.4516C3.78116 2.55098 4.0523 2.53597 4.27587 2.41055C4.49847 2.28657 4.64667 2.06859 4.67528 1.82322L4.77483 0.965774C4.79562 0.786712 4.93264 0.640133 5.1158 0.601017C5.53565 0.511365 5.96403 0.463724 6.4043 0.458862ZM6.40442 1.30182C6.13863 1.30482 5.87366 1.32685 5.61156 1.36765L5.54782 1.91682C5.48824 2.42797 5.17974 2.8817 4.71757 3.13911C4.25257 3.39996 3.68563 3.43136 3.19235 3.22349L2.66657 3.00172C2.33181 3.39185 2.06537 3.83169 1.87771 4.30396L2.34467 4.63393C2.7771 4.93899 3.03249 5.4235 3.03249 5.93876C3.03249 6.45395 2.7771 6.93846 2.34512 7.24318L1.87743 7.57404C2.06493 8.04714 2.33141 8.48781 2.6664 8.87869L3.19618 8.65586C3.68673 8.45022 4.2498 8.48028 4.71354 8.73695C5.17727 8.99362 5.4866 9.44638 5.54729 9.95832L5.61109 10.5113C6.13178 10.5963 6.66377 10.5963 7.18446 10.5113L7.24826 9.95837C7.30726 9.44661 7.61625 8.99228 8.08051 8.73465C8.54478 8.47697 9.10902 8.44673 9.60045 8.65327L10.1298 8.87594C10.4645 8.48568 10.7309 8.04574 10.9185 7.57337L10.4514 7.24296C10.019 6.9379 9.76363 6.45339 9.76363 5.93819C9.76363 5.42294 10.019 4.93843 10.4509 4.63375L10.9173 4.30363C10.7297 3.83127 10.4632 3.39135 10.1284 3.00115L9.60367 3.22248C9.38985 3.31332 9.15854 3.36008 8.92494 3.35973C8.06471 3.35886 7.34273 2.737 7.24885 1.91662L7.18511 1.36747C6.92435 1.32672 6.66207 1.30476 6.40442 1.30182ZM6.39699 3.8309C7.60922 3.8309 8.5919 4.77448 8.5919 5.93847C8.5919 7.1024 7.60922 8.04602 6.39699 8.04602C5.18477 8.04602 4.20208 7.1024 4.20208 5.93847C4.20208 4.77448 5.18477 3.8309 6.39699 3.8309ZM6.39699 4.67392C5.66968 4.67392 5.08004 5.24006 5.08004 5.93847C5.08004 6.63683 5.66968 7.203 6.39699 7.203C7.12429 7.203 7.71393 6.63683 7.71393 5.93847C7.71393 5.24006 7.12429 4.67392 6.39699 4.67392Z" fill="#AA00FF"/>
</svg>
