<svg width="110" height="297" viewBox="0 0 110 297" fill="none" xmlns="http://www.w3.org/2000/svg">
<g style="mix-blend-mode:luminosity" clip-path="url(#clip0_213_305)">
<path d="M299 154.736V142.264L185.968 141.998L292.127 103.158L287.865 91.4319L181.586 130.008L266.655 58.1828L268.003 57.038L259.986 47.4935L173.328 120.017L228.821 23.5599L229.7 22.0295L218.914 15.787L162.133 113.726L181.514 2.15715L169.236 0L149.494 111.304L129.764 0L117.486 2.15715L136.867 113.726L80.0856 15.787L69.288 22.0295L125.66 120.017L39.0016 47.4814L30.9966 57.038L117.414 130.008L11.1347 91.4319L6.87343 103.158L113.032 141.998L0 142.264V154.736L113.032 155.002L6.87343 193.83L11.1347 205.556L117.402 166.992L30.9966 239.95L39.0016 249.507L125.66 176.971L70.1787 273.428L69.3 274.971L80.0856 281.213L136.867 183.261L117.486 294.831L129.752 297L149.494 185.696L169.236 297L181.514 294.831L162.133 183.261L218.914 281.213L229.7 274.971L173.328 176.971L259.986 249.507L268.003 239.95L181.586 166.992L287.865 205.556L292.127 193.83L185.968 155.002L299 154.736Z" fill="url(#paint0_linear_213_305)" style="mix-blend-mode:luminosity"/>
</g>
<defs>
<linearGradient id="paint0_linear_213_305" x1="235.442" y1="34.3216" x2="63.1416" y2="262.72" gradientUnits="userSpaceOnUse">
<stop stop-color="#910DFF" stop-opacity="0"/>
<stop offset="0.94" stop-color="#0000FF"/>
</linearGradient>
<clipPath id="clip0_213_305">
<rect width="299" height="297" fill="white"/>
</clipPath>
</defs>
</svg>
