<svg width="118" height="382" viewBox="0 0 118 382" fill="none" xmlns="http://www.w3.org/2000/svg">
<g style="mix-blend-mode:luminosity" clip-path="url(#clip0_213_298)">
<path d="M118 199.021V182.979L-27.5433 182.638L109.15 132.681L103.663 117.599L-33.1852 167.215L76.352 74.8345L78.088 73.362L67.7651 61.0859L-43.8181 154.366L27.636 30.3027L28.7675 28.3342L14.8797 20.3051L-58.2329 146.274L-33.2782 2.77452L-49.0881 0L-74.5078 143.159L-99.912 0L-115.722 2.77452L-90.7671 146.274L-163.88 20.3051L-177.783 28.3342L-105.197 154.366L-216.781 61.0704L-227.088 73.362L-115.815 167.215L-252.663 117.599L-258.15 132.681L-121.457 182.638L-267 182.979V199.021L-121.457 199.362L-258.15 249.304L-252.663 264.385L-115.83 214.785L-227.088 308.623L-216.781 320.914L-105.197 227.619L-176.636 351.682L-177.768 353.666L-163.88 361.695L-90.7671 235.71L-115.722 379.21L-99.9275 382L-74.5078 238.841L-49.0881 382L-33.2782 379.21L-58.2329 235.71L14.8797 361.695L28.7675 353.666L-43.8181 227.619L67.7651 320.914L78.088 308.623L-33.1852 214.785L103.663 264.385L109.15 249.304L-27.5433 199.362L118 199.021Z" fill="url(#paint0_linear_213_298)" style="mix-blend-mode:luminosity"/>
</g>
<defs>
<linearGradient id="paint0_linear_213_298" x1="36.161" y1="44.1443" x2="-185.383" y2="338.146" gradientUnits="userSpaceOnUse">
<stop stop-color="#910DFF"/>
<stop offset="0.94" stop-color="#0000FF"/>
</linearGradient>
<clipPath id="clip0_213_298">
<rect width="385" height="382" fill="white" transform="translate(-267)"/>
</clipPath>
</defs>
</svg>
