<svg width="160" height="345" viewBox="0 0 160 345" fill="none" xmlns="http://www.w3.org/2000/svg">
<g style="mix-blend-mode:luminosity" opacity="0.3" clip-path="url(#clip0_31_46)">
<path d="M160 179.744V165.256L28.444 164.948L152 119.83L147.041 106.209L23.3443 151.019L122.355 67.5861L123.924 66.2562L114.593 55.1692L13.7332 139.414L78.3204 27.3676L79.3431 25.5898L66.79 18.3384L0.703731 132.107L23.2602 2.50578L8.96976 0L-14.007 129.293L-36.9698 0L-51.2602 2.50578L-28.7037 132.107L-94.79 18.3384L-107.357 25.5898L-41.7473 139.414L-142.607 55.1552L-151.924 66.2562L-51.3443 151.019L-175.041 106.209L-180 119.83L-56.444 164.948L-188 165.256V179.744L-56.444 180.052L-180 225.156L-175.041 238.777L-51.3583 193.981L-151.924 278.73L-142.607 289.831L-41.7473 205.572L-106.32 317.618L-107.343 319.41L-94.79 326.662L-28.7037 212.879L-51.2602 342.48L-36.9838 345L-14.007 215.707L8.96976 345L23.2602 342.48L0.703731 212.879L66.79 326.662L79.3431 319.41L13.7332 205.572L114.593 289.831L123.924 278.73L23.3443 193.981L147.041 238.777L152 225.156L28.444 180.052L160 179.744Z" fill="url(#paint0_linear_31_46)" style="mix-blend-mode:luminosity"/>
</g>
<defs>
<linearGradient id="paint0_linear_31_46" x1="86.026" y1="39.8685" x2="-114.013" y2="305.555" gradientUnits="userSpaceOnUse">
<stop stop-color="#910DFF" stop-opacity="0"/>
<stop offset="0.94" stop-color="#0000FF"/>
</linearGradient>
<clipPath id="clip0_31_46">
<rect width="348" height="345" fill="white" transform="translate(-188)"/>
</clipPath>
</defs>
</svg>
