<svg width="24" height="25" viewBox="0 0 24 25" fill="none" xmlns="http://www.w3.org/2000/svg">
<path id="Vector" d="M12 24.4944C12.9261 24.4944 13.8277 24.3895 14.6936 24.1909C15.3657 24.0367 15.5527 23.2133 15.0652 22.7258V22.7258C14.8262 22.4868 14.4783 22.3974 14.1478 22.4682C13.4554 22.6166 12.7368 22.6948 12 22.6948C6.36649 22.6948 1.79962 18.1279 1.79962 12.4944C1.79962 6.86086 6.36649 2.29401 12 2.29401C17.6335 2.29401 22.2004 6.86086 22.2004 12.4944C22.2004 13.23 22.1225 13.9475 21.9746 14.6389C21.9039 14.9693 21.9933 15.317 22.2322 15.5559V15.5559C22.7198 16.0436 23.5434 15.8563 23.6974 15.1841C23.8954 14.3194 24 13.4191 24 12.4944C24 5.86687 18.6274 0.494384 12 0.494384C5.37259 0.494384 0 5.86687 0 12.4944C0 19.1218 5.37259 24.4944 12 24.4944ZM12 19.6929C12.3917 19.6929 12.776 19.6616 13.1507 19.6014C13.5374 19.5392 13.8018 19.1918 13.8018 18.8001V18.8001C13.8019 18.2073 13.2096 17.7905 12.6207 17.8579C12.417 17.8813 12.2099 17.8932 12 17.8932C9.01826 17.8932 6.60111 15.4761 6.60111 12.4943C6.60111 9.51267 9.01826 7.09541 12 7.09541C14.9816 7.09541 17.3989 9.51267 17.3989 12.4943C17.3989 12.7036 17.387 12.9101 17.3638 13.1132C17.2966 13.702 17.7133 14.2939 18.3059 14.2939V14.2939C18.6978 14.2939 19.0453 14.0293 19.1074 13.6425C19.1673 13.2686 19.1985 12.8851 19.1985 12.4943C19.1985 8.51868 15.9756 5.29579 12 5.29579C8.02436 5.29579 4.80149 8.51868 4.80149 12.4943C4.80149 16.47 8.02436 19.6929 12 19.6929ZM14.3995 12.4943C14.3995 11.1692 13.3251 10.0948 12 10.0948C10.6748 10.0948 9.60048 11.1692 9.60048 12.4943C9.60048 13.8195 10.6748 14.8938 12 14.8938V14.8938C12.5826 14.8938 13.2084 14.9731 13.6204 15.3851L14.3041 16.0688C14.7507 16.5154 15.0016 17.1212 15.0016 17.7529L15.0015 20.5926C15.0015 20.8313 15.0963 21.0601 15.2651 21.2289L18.2644 24.2284C18.5217 24.4857 18.9088 24.5627 19.2449 24.4234C19.5812 24.2842 19.8004 23.9561 19.8004 23.5921V22.6743C19.8004 21.359 20.8667 20.2928 22.182 20.2927L23.1 20.2927C23.464 20.2927 23.7921 20.0735 23.9313 19.7372C24.0705 19.401 23.9936 19.014 23.7363 18.7566L20.7368 15.7573C20.568 15.5885 20.3392 15.4937 20.1006 15.4937L17.2606 15.4937C16.629 15.4937 16.0232 15.2428 15.5766 14.7961L14.8898 14.1094C14.4791 13.6986 14.3995 13.0751 14.3995 12.4943V12.4943ZM19.4793 17.2933C19.6384 17.2933 19.791 17.3565 19.9035 17.469V17.469C20.2815 17.8469 20.0138 18.4931 19.4794 18.4931L18.9006 18.4932C18.4037 18.4932 18.0008 18.896 18.0008 19.393V19.9715C18.0008 20.5059 17.3547 20.7735 16.9768 20.3957V20.3957C16.8643 20.2832 16.8012 20.1306 16.8012 19.9715L16.8013 17.414C16.8013 17.3822 16.8151 17.3523 16.8375 17.3297V17.3297V17.3297C16.86 17.3072 16.8902 17.2933 16.9221 17.2933H19.4793Z" fill="white"/>
</svg>
