<svg width="12" height="12" viewBox="0 0 12 12" fill="none" xmlns="http://www.w3.org/2000/svg">
<path d="M5.53087 11.3262C6.19031 11.3262 6.82252 11.2097 7.40811 10.9962L6.7541 10.3421C6.36431 10.4479 5.95419 10.5044 5.53087 10.5044C2.95842 10.5044 0.873036 8.41902 0.873036 5.84659C0.873036 3.27412 2.95842 1.18875 5.53087 1.18875C8.10333 1.18875 10.1887 3.27412 10.1887 5.84659C10.1887 6.26931 10.1324 6.67887 10.0269 7.06821L10.681 7.72234C10.8942 7.13718 11.0105 6.50543 11.0105 5.84659C11.0105 2.82023 8.55716 0.366977 5.53087 0.366977C2.50457 0.366977 0.0512695 2.82023 0.0512695 5.84659C0.0512695 8.87287 2.50457 11.3262 5.53087 11.3262ZM5.53087 9.13364C5.81498 9.13364 6.09066 9.09759 6.35362 9.02981L6.35368 8.17121C6.09636 8.2623 5.81937 8.31187 5.53087 8.31187C4.16931 8.31187 3.06555 7.20811 3.06555 5.84653C3.06555 4.48502 4.16931 3.38122 5.53087 3.38122C6.89237 3.38122 7.99617 4.48502 7.99617 5.84653C7.99617 6.1347 7.9467 6.41131 7.85587 6.6683H8.71434C8.78194 6.40566 8.81794 6.13032 8.81794 5.84653C8.81794 4.03113 7.34626 2.55946 5.53087 2.55946C3.71546 2.55946 2.24379 4.03113 2.24379 5.84653C2.24379 7.66196 3.71546 9.13364 5.53087 9.13364ZM6.62656 5.84653C6.62656 5.24144 6.13596 4.75084 5.53087 4.75084C4.92572 4.75084 4.43516 5.24144 4.43516 5.84653C4.43516 6.45168 4.92572 6.94222 5.53087 6.94222C5.68295 6.94222 5.8278 6.91127 5.95945 6.85523L6.90152 7.79731L6.90147 9.5445C6.90147 9.65347 6.94475 9.75798 7.02183 9.83504L8.39139 11.2047C8.5089 11.3222 8.68563 11.3574 8.83914 11.2938C8.9927 11.2302 9.09279 11.0804 9.09279 10.9142V9.40758L10.5995 9.40755C10.7657 9.40754 10.9155 9.30744 10.9791 9.1539C11.0427 9.00036 11.0076 8.82363 10.89 8.70612L9.52038 7.33651C9.4433 7.25945 9.33883 7.21617 9.22986 7.21617L7.48257 7.21616L6.54016 6.27374C6.59577 6.14248 6.62656 5.99812 6.62656 5.84653ZM9.05965 8.03793L9.60755 8.5858L8.68191 8.58581C8.45499 8.58582 8.27102 8.76977 8.27102 8.9967V9.92217L7.72323 9.37433L7.72329 8.07023C7.72893 8.06519 7.73447 8.05996 7.73983 8.05456C7.74526 8.04913 7.75052 8.04358 7.75556 8.03793H9.05965Z" fill="#AA00FF"/>
</svg>
