<svg width="58" height="58" viewBox="0 0 58 58" fill="none" xmlns="http://www.w3.org/2000/svg">
<path d="M29 58C31.2382 58 33.417 57.7465 35.5096 57.2665C37.1337 56.894 37.5858 54.9041 36.4076 53.7259C35.83 53.1483 34.9892 52.9323 34.1906 53.1035C32.5171 53.4621 30.7807 53.6509 29 53.6509C15.3857 53.6509 4.34908 42.6143 4.34908 29.0001C4.34908 15.3857 15.3857 4.3491 29 4.3491C42.6144 4.3491 53.6509 15.3857 53.6509 29.0001C53.6509 30.7778 53.4627 32.5116 53.1052 34.1827C52.9344 34.981 53.1505 35.8214 53.7278 36.3987C54.9063 37.5772 56.8966 37.1247 57.2686 35.5001C57.7472 33.4104 58 31.2347 58 29.0001C58 12.9835 45.0162 0 29 0C12.9838 0 0 12.9835 0 29.0001C0 45.0162 12.9838 58 29 58ZM29 46.3963C29.9465 46.3963 30.8753 46.3207 31.7808 46.1752C32.7154 46.0251 33.3544 45.1854 33.3544 44.2388C33.3545 42.8062 31.9233 41.799 30.5 41.9619C30.0078 42.0183 29.5072 42.0472 29 42.0472C21.7941 42.0472 15.9527 36.2057 15.9527 28.9998C15.9527 21.7942 21.7941 15.9525 29 15.9525C36.2056 15.9525 42.0473 21.7942 42.0473 28.9998C42.0473 29.5056 42.0185 30.0046 41.9624 30.4954C41.8 31.9184 42.8071 33.3489 44.2393 33.3489C45.1862 33.3489 46.0262 32.7095 46.1761 31.7745C46.321 30.871 46.3964 29.9442 46.3964 28.9998C46.3964 19.392 38.6077 11.6034 29 11.6034C19.3922 11.6034 11.6036 19.392 11.6036 28.9998C11.6036 38.6077 19.3922 46.3963 29 46.3963ZM34.7988 28.9998C34.7988 25.7974 32.2024 23.201 29 23.201C25.7974 23.201 23.2011 25.7974 23.2011 28.9998C23.2011 32.2025 25.7974 34.7986 29 34.7986C30.408 34.7986 31.9203 34.9903 32.9159 35.9859L35.0824 38.1524C35.8326 38.9025 36.254 39.92 36.2539 40.9809L36.2537 48.5708C36.2537 49.1475 36.4828 49.7006 36.8907 50.1084L44.1389 57.3571C44.7608 57.979 45.6962 58.1651 46.5086 57.8285C47.3213 57.492 47.851 56.699 47.851 55.8195V51.846C47.851 49.6369 49.6418 47.8461 51.8509 47.846L55.8249 47.846C56.7046 47.8459 57.4975 47.3161 57.8339 46.5035C58.1705 45.691 57.9846 44.7557 57.3627 44.1337L50.1139 36.8853C49.706 36.4775 49.1531 36.2484 48.5764 36.2484L40.986 36.2484C39.9251 36.2484 38.9077 35.8269 38.1575 35.0768L35.9836 32.9028C34.9911 31.9103 34.7988 30.4034 34.7988 28.9998ZM47.0751 40.5975C47.4596 40.5975 47.8283 40.7502 48.1002 41.0221C49.0135 41.9353 48.3667 43.497 47.0751 43.497L45.6764 43.497C44.4755 43.4971 43.5019 44.4706 43.5019 45.6716V47.0698C43.5019 48.3612 41.9405 49.008 41.0273 48.0947C40.7555 47.8229 40.6028 47.4542 40.6028 47.0697L40.6031 40.8891C40.6031 40.8123 40.6366 40.7399 40.6906 40.6854C40.7451 40.6309 40.8179 40.5975 40.895 40.5975H47.0751Z" fill="url(#paint0_linear_1_194)"/>
<defs>
<linearGradient id="paint0_linear_1_194" x1="29.4451" y1="58" x2="-32.6141" y2="11.2284" gradientUnits="userSpaceOnUse">
<stop stop-color="#AA00FF"/>
<stop offset="1" stop-color="#4305F4"/>
</linearGradient>
</defs>
</svg>
