<svg width="26" height="25" viewBox="0 0 26 25" fill="none" xmlns="http://www.w3.org/2000/svg">
<path d="M22.6816 4.24705C22.6816 2.09913 20.8537 0.35791 18.5986 0.35791H4.15102C1.89603 0.35791 0.0679889 2.09913 0.0679889 4.24705V18.9453C0.0679889 20.5052 2.04141 21.2933 3.20935 20.1998L8.2713 15.4607C8.28003 15.4526 8.28856 15.4443 8.29688 15.4358L10.7155 13.1799L10.8205 13.0951C11.1866 12.841 11.7009 12.8693 12.034 13.1799L14.0127 15.026C14.3684 15.3577 14.9209 15.3549 15.2731 15.0194V15.0194C15.6559 14.6548 15.6527 14.043 15.2661 13.6824L13.3525 11.8974L13.1912 11.758C12.0878 10.8747 10.4437 10.9212 9.39711 11.8973L3.80826 17.1093C3.80645 17.111 3.80765 17.114 3.81012 17.114V17.114C3.81259 17.114 3.81378 17.117 3.81198 17.1187L2.84135 18.0275C2.50404 18.3433 1.95246 18.1041 1.95246 17.642V4.24705C1.95246 3.09048 2.93679 2.1529 4.15102 2.1529H18.5986C19.8128 2.1529 20.7972 3.09048 20.7972 4.24705V9.11274C20.7972 9.64248 21.3358 10.012 21.8626 9.95573V9.95573C22.3027 9.90875 22.6816 9.56647 22.6816 9.12385V4.24705ZM18.2899 7.24124C18.2899 5.75282 17.0232 4.54622 15.4605 4.54622C13.8979 4.54622 12.6311 5.75282 12.6311 7.24124C12.6311 8.72964 13.8979 9.93621 15.4605 9.93621C17.0232 9.93621 18.2899 8.72964 18.2899 7.24124ZM14.5156 7.24124C14.5156 6.74416 14.9387 6.34121 15.4605 6.34121C15.9823 6.34121 16.4055 6.74416 16.4055 7.24124C16.4055 7.73831 15.9823 8.14126 15.4605 8.14126C14.9387 8.14126 14.5156 7.73831 14.5156 7.24124ZM12.8792 18.9922L20.2945 11.929C21.4159 10.8607 23.2341 10.8607 24.3554 11.929C25.4768 12.9971 25.4768 14.7289 24.3554 15.7971L16.9402 22.8602C16.5079 23.2721 15.9661 23.5642 15.3729 23.7054L13.073 24.2532V24.2532C12.9506 24.2824 12.8273 24.3059 12.7054 24.3373C11.7455 24.5838 9.07074 24.9182 8.07772 24.18C7.35602 23.6435 7.49967 22.5832 7.80434 22.0039C7.85307 21.9113 7.77937 21.7898 7.67187 21.8059C6.84173 21.9294 6.11009 22.3451 5.37725 22.7616C4.39238 23.3213 3.40537 23.8822 2.17429 23.7366C0.944521 23.5909 0.329918 22.868 0.0258646 22.2355C-0.0983977 21.977 0.251486 21.7553 0.513479 21.8916C1.10221 22.1975 1.90259 22.4849 2.56263 22.3458C3.0339 22.2465 3.69812 21.7989 4.44242 21.2974C5.78074 20.3957 7.37801 19.3195 8.57826 19.7794C9.63229 20.1834 10.4116 21.1569 9.87212 22.3085C9.80591 22.4497 9.8725 22.6235 10.0308 22.6583C10.128 22.6795 10.2224 22.6956 10.3144 22.7065C11.0487 22.7936 11.5631 22.1188 11.7508 21.4035L11.9919 20.485C12.1401 19.9199 12.4468 19.4039 12.8792 18.9922Z" fill="white"/>
</svg>
